# Blender v2.91.0 OBJ File: 'buzon.blend'
# www.blender.org
mtllib buzon.mtl
o Cilindro.001
v 11.652494 44.011940 -24.823181
v -25.818169 43.515427 -26.287579
v 11.540899 44.700729 -24.660236
v -26.057133 45.825825 -25.529350
v 11.402978 46.293854 -23.935123
v -26.214188 47.632519 -24.707005
v 11.279915 47.717834 -22.906631
v -26.354542 49.249462 -23.539101
v 11.176255 48.919994 -21.613350
v -26.472801 50.614521 -22.070522
v 11.095985 49.854137 -20.104992
v -26.564419 51.675243 -20.357708
v 11.042187 50.484364 -18.439510
v -26.625881 52.390865 -18.466475
v 11.016930 50.786449 -16.680916
v -26.654819 52.733868 -16.469507
v 11.021181 50.748791 -14.896787
v -26.650120 52.691097 -14.443544
v 11.054783 50.372822 -13.155689
v -26.611973 52.264164 -12.466446
v 11.116440 49.673008 -11.524527
v -26.541832 51.469509 -10.614185
v 11.203783 48.676239 -10.065992
v -26.442402 50.337650 -8.957951
v 11.313457 47.420818 -8.836130
v -26.317501 48.912098 -7.561384
v 11.441246 45.954987 -7.882206
v -26.171928 47.247616 -6.478158
v 11.582239 44.335083 -7.240883
v -26.011276 45.408180 -5.749906
v 11.609414 43.749386 -7.193964
v -25.841724 43.464481 -5.404599
v 11.664289 43.393688 -7.073640
v -25.926502 44.436325 -5.577250
v -25.834152 43.377590 -5.406845
v -8.403703 -8.109447 -20.846840
v -8.895589 28.363297 -21.268940
v -7.277892 -8.128898 -20.734606
v -7.769776 28.343845 -21.156704
v -6.195079 -8.150632 -20.404900
v -6.686965 28.322113 -20.827000
v -5.196879 -8.173813 -19.870392
v -5.688766 28.298927 -20.292492
v -4.321652 -8.197551 -19.151625
v -4.813537 28.275192 -19.573727
v -3.603032 -8.220936 -18.276218
v -4.094914 28.251808 -18.698320
v -3.068633 -8.243065 -17.277817
v -3.560518 28.229679 -17.699917
v -2.738994 -8.263092 -16.194784
v -3.230879 28.209652 -16.616886
v -2.626782 -8.280244 -15.068744
v -3.118667 28.192501 -15.490846
v -2.736309 -8.293863 -13.942968
v -3.228195 28.178879 -14.365069
v -3.063368 -8.303427 -12.860720
v -3.555253 28.169315 -13.282822
v -3.595387 -8.308566 -11.863588
v -4.087274 28.164177 -12.285688
v -4.311926 -8.309086 -10.989893
v -4.803809 28.163658 -11.411995
v -5.185443 -8.304962 -10.273211
v -5.677327 28.167786 -10.695312
v -6.182372 -8.296358 -9.741082
v -6.674256 28.176384 -10.163184
v -7.264403 -8.283599 -9.413958
v -7.756286 28.189144 -9.836060
v -8.389949 -8.267181 -9.304408
v -8.881835 28.205563 -9.726509
v -9.515761 -8.247731 -9.416642
v -10.007646 28.225010 -9.838744
v -10.598573 -8.225997 -9.746349
v -11.090459 28.246746 -10.168451
v -11.596774 -8.202816 -10.280857
v -12.088658 28.269924 -10.702959
v -12.472003 -8.179077 -10.999625
v -12.963887 28.293671 -11.421726
v -13.190623 -8.155693 -11.875032
v -13.682508 28.317051 -12.297134
v -13.725017 -8.133563 -12.873435
v -14.216905 28.339180 -13.295536
v -14.054660 -8.113539 -13.956469
v -14.546540 28.359207 -14.378570
v -14.166869 -8.096385 -15.082509
v -14.658753 28.376358 -15.504610
v -14.057340 -8.082766 -16.208286
v -14.549224 28.389980 -16.630386
v -13.730279 -8.073202 -17.290535
v -14.222163 28.399540 -17.712635
v -13.198258 -8.068063 -18.287666
v -13.690143 28.404682 -18.709768
v -12.481721 -8.067544 -19.161360
v -12.973605 28.405201 -19.583462
v -11.608201 -8.071666 -19.878040
v -12.100087 28.401077 -20.300140
v -10.611272 -8.080271 -20.410168
v -11.103156 28.392471 -20.832268
v -9.529243 -8.093029 -20.737289
v -10.021127 28.379715 -21.159393
v -25.705551 28.326923 -5.167618
v -25.907429 43.296177 -5.340858
v -25.730724 28.615585 -26.291073
v -25.932606 43.584843 -26.464310
v 12.047591 31.235977 -10.023639
v 11.938629 39.315350 -10.117143
v 12.034002 31.391773 -21.424631
v 11.925041 39.471146 -21.518135
v 11.872787 42.982521 -26.419231
v 12.074669 28.013271 -26.245995
v 12.099845 27.724598 -5.122540
v 11.897963 42.693855 -5.295781
v -24.959656 40.058804 -21.562115
v -24.850693 31.979427 -21.468613
v -24.837105 31.823627 -10.067618
v -24.946068 39.903000 -10.161122
v 11.757703 42.838318 -26.357952
v 11.507318 45.076466 -25.830818
v 11.718651 42.528576 -5.489697
v 11.350263 46.883156 -25.008472
v 11.209908 48.500103 -23.840569
v 11.091649 49.865162 -22.371990
v 11.000029 50.925892 -20.659174
v 10.938568 51.641499 -18.767941
v 10.909632 51.984509 -16.770973
v 10.914328 51.941730 -14.745011
v 10.952477 51.514812 -12.767912
v 11.022615 50.720150 -10.915651
v 11.122046 49.588291 -9.259417
v 11.246948 48.162735 -7.862851
v 11.392521 46.498257 -6.779624
v 11.553171 44.658825 -6.051372
v 11.637948 43.686970 -5.878716
v -19.798203 41.168125 -24.809628
v -19.909798 41.856907 -24.646687
v -19.841282 40.905571 -7.180411
v -20.047718 43.450027 -23.921570
v -20.170780 44.874012 -22.893078
v -20.274441 46.076176 -21.599796
v -20.354713 47.010319 -20.091438
v -20.408508 47.640545 -18.425957
v -20.433765 47.942627 -16.667362
v -20.429516 47.904961 -14.883233
v -20.395912 47.529011 -13.142136
v -20.334255 46.829189 -11.510975
v -20.246910 45.832417 -10.052439
v -20.137241 44.576996 -8.822577
v -20.009453 43.111168 -7.868653
v -19.868458 41.491261 -7.227330
v -19.786407 40.549870 -7.060087
vt 0.748920 0.500000
vt 0.720105 0.500000
vt 0.720105 0.500000
vt 0.748920 0.500000
vt 0.906250 0.500000
vt 0.906250 1.000000
vt 0.875000 1.000000
vt 0.875000 0.500000
vt 0.843750 1.000000
vt 0.843750 0.500000
vt 0.812500 1.000000
vt 0.812500 0.500000
vt 0.781250 1.000000
vt 0.781250 0.500000
vt 0.750000 1.000000
vt 0.750000 0.500000
vt 0.718750 1.000000
vt 0.718750 0.500000
vt 0.687500 1.000000
vt 0.687500 0.500000
vt 0.656250 1.000000
vt 0.656250 0.500000
vt 0.625000 1.000000
vt 0.625000 0.500000
vt 0.593750 1.000000
vt 0.593750 0.500000
vt 0.562500 1.000000
vt 0.562500 0.500000
vt 0.531250 1.000000
vt 0.515625 1.000000
vt 0.500000 1.000000
vt 0.498624 1.000000
vt 0.500000 0.500000
vt 0.515625 0.500000
vt 0.531250 0.500000
vt 0.968750 0.500000
vt 0.968750 1.000000
vt 0.937500 1.000000
vt 0.937500 0.500000
vt 0.000000 0.000000
vt 1.000000 0.500000
vt 1.000000 1.000000
vt 0.968750 1.000000
vt 0.968750 0.500000
vt 0.937500 1.000000
vt 0.937500 0.500000
vt 0.906250 1.000000
vt 0.906250 0.500000
vt 0.875000 1.000000
vt 0.875000 0.500000
vt 0.843750 1.000000
vt 0.843750 0.500000
vt 0.812500 1.000000
vt 0.812500 0.500000
vt 0.781250 1.000000
vt 0.781250 0.500000
vt 0.750000 1.000000
vt 0.750000 0.500000
vt 0.718750 1.000000
vt 0.718750 0.500000
vt 0.687500 1.000000
vt 0.687500 0.500000
vt 0.656250 1.000000
vt 0.656250 0.500000
vt 0.625000 1.000000
vt 0.625000 0.500000
vt 0.593750 1.000000
vt 0.593750 0.500000
vt 0.562500 1.000000
vt 0.562500 0.500000
vt 0.531250 1.000000
vt 0.531250 0.500000
vt 0.500000 1.000000
vt 0.500000 0.500000
vt 0.468750 1.000000
vt 0.468750 0.500000
vt 0.437500 1.000000
vt 0.437500 0.500000
vt 0.406250 1.000000
vt 0.406250 0.500000
vt 0.375000 1.000000
vt 0.375000 0.500000
vt 0.343750 1.000000
vt 0.343750 0.500000
vt 0.312500 1.000000
vt 0.312500 0.500000
vt 0.281250 1.000000
vt 0.281250 0.500000
vt 0.250000 1.000000
vt 0.250000 0.500000
vt 0.218750 1.000000
vt 0.218750 0.500000
vt 0.187500 1.000000
vt 0.187500 0.500000
vt 0.156250 1.000000
vt 0.156250 0.500000
vt 0.125000 1.000000
vt 0.125000 0.500000
vt 0.093750 1.000000
vt 0.093750 0.500000
vt 0.062500 1.000000
vt 0.062500 0.500000
vt 0.296822 0.485388
vt 0.250000 0.490000
vt 0.203179 0.485389
vt 0.158156 0.471731
vt 0.116663 0.449553
vt 0.080295 0.419706
vt 0.050447 0.383337
vt 0.028269 0.341844
vt 0.014612 0.296822
vt 0.010000 0.250000
vt 0.014611 0.203179
vt 0.028269 0.158156
vt 0.050447 0.116663
vt 0.080294 0.080294
vt 0.116663 0.050447
vt 0.158156 0.028269
vt 0.203178 0.014612
vt 0.250000 0.010000
vt 0.296822 0.014612
vt 0.341844 0.028269
vt 0.383337 0.050447
vt 0.419706 0.080294
vt 0.449553 0.116663
vt 0.471731 0.158156
vt 0.485388 0.203178
vt 0.490000 0.250000
vt 0.485388 0.296822
vt 0.471731 0.341844
vt 0.449553 0.383337
vt 0.419706 0.419706
vt 0.383337 0.449553
vt 0.341844 0.471731
vt 0.031250 1.000000
vt 0.031250 0.500000
vt 0.000000 1.000000
vt 0.000000 0.500000
vt 0.750000 0.490000
vt 0.796822 0.485388
vt 0.841844 0.471731
vt 0.883337 0.449553
vt 0.919706 0.419706
vt 0.949553 0.383337
vt 0.971731 0.341844
vt 0.985388 0.296822
vt 0.990000 0.250000
vt 0.985388 0.203178
vt 0.971731 0.158156
vt 0.949553 0.116663
vt 0.919706 0.080294
vt 0.883337 0.050447
vt 0.841844 0.028269
vt 0.796822 0.014612
vt 0.750000 0.010000
vt 0.703178 0.014612
vt 0.658156 0.028269
vt 0.616663 0.050447
vt 0.580294 0.080294
vt 0.550447 0.116663
vt 0.528269 0.158156
vt 0.514611 0.203179
vt 0.510000 0.250000
vt 0.514612 0.296822
vt 0.528269 0.341844
vt 0.550447 0.383337
vt 0.580295 0.419706
vt 0.616663 0.449553
vt 0.658156 0.471731
vt 0.703179 0.485389
vt 0.375000 0.000000
vt 0.625000 0.000000
vt 0.625000 0.250000
vt 0.375000 0.250000
vt 0.625000 0.500000
vt 0.375000 0.500000
vt 0.567466 0.557534
vt 0.567466 0.692466
vt 0.567466 0.692466
vt 0.567466 0.557534
vt 0.375000 0.750000
vt 0.625000 0.750000
vt 0.625000 1.000000
vt 0.375000 1.000000
vt 0.125000 0.500000
vt 0.125000 0.750000
vt 0.875000 0.500000
vt 0.875000 0.750000
vt 0.432534 0.557534
vt 0.432534 0.692466
vt 0.432534 0.557534
vt 0.432534 0.692466
vt 0.917785 0.500000
vt 0.926541 0.500000
vt 0.545812 0.500000
vt 0.891424 0.500000
vt 0.863496 0.500000
vt 0.835087 0.500000
vt 0.806461 0.500000
vt 0.777719 0.500000
vt 0.691313 0.500000
vt 0.662585 0.500000
vt 0.633985 0.500000
vt 0.605624 0.500000
vt 0.577783 0.500000
vt 0.551588 0.500000
vt 0.540556 0.500000
vt 0.926541 0.500000
vt 0.917785 0.500000
vt 0.891424 0.500000
vt 0.863496 0.500000
vt 0.835087 0.500000
vt 0.806461 0.500000
vt 0.777719 0.500000
vt 0.691313 0.500000
vt 0.662585 0.500000
vt 0.633985 0.500000
vt 0.605624 0.500000
vt 0.577783 0.500000
vt 0.551588 0.500000
vt 0.540556 0.500000
vt 0.545812 0.500000
vn 0.0900 -0.9957 -0.0212
vn 0.0052 0.5858 -0.8104
vn 0.0092 0.7328 -0.6804
vn 0.0127 0.8504 -0.5260
vn 0.0158 0.9353 -0.3534
vn 0.0183 0.9854 -0.1690
vn 0.0201 0.9996 0.0211
vn 0.0212 0.9773 0.2106
vn 0.0215 0.9191 0.3935
vn 0.0210 0.8260 0.5632
vn 0.0197 0.7006 0.7133
vn 0.0176 0.5465 0.8373
vn 0.0128 0.2894 0.9571
vn 0.0007 0.3379 -0.9412
vn -0.9960 -0.0894 0.0002
vn -0.0203 -0.9997 -0.0107
vn 0.0990 -0.0102 -0.9950
vn 0.2912 -0.0071 -0.9567
vn 0.4720 -0.0038 -0.8816
vn 0.6346 -0.0004 -0.7728
vn 0.7730 0.0031 -0.6344
vn 0.8817 0.0064 -0.4718
vn 0.9567 0.0095 -0.2910
vn 0.9950 0.0123 -0.0990
vn 0.9952 0.0145 0.0970
vn 0.9571 0.0163 0.2894
vn 0.8821 0.0173 0.4707
vn 0.7731 0.0178 0.6340
vn 0.6342 0.0175 0.7729
vn 0.4709 0.0166 0.8820
vn 0.2895 0.0150 0.9571
vn 0.0970 0.0128 0.9952
vn -0.0990 0.0102 0.9950
vn -0.2911 0.0071 0.9567
vn -0.4720 0.0038 0.8816
vn -0.6346 0.0004 0.7728
vn -0.7730 -0.0031 0.6344
vn -0.8817 -0.0064 0.4718
vn -0.9567 -0.0095 0.2910
vn -0.9950 -0.0123 0.0990
vn -0.9952 -0.0145 -0.0970
vn -0.9571 -0.0163 -0.2894
vn -0.8821 -0.0173 -0.4707
vn -0.7731 -0.0178 -0.6340
vn -0.6342 -0.0175 -0.7729
vn -0.4709 -0.0166 -0.8820
vn 0.0159 0.9998 0.0136
vn -0.2895 -0.0150 -0.9571
vn -0.0970 -0.0128 -0.9952
vn -0.0159 -0.9998 -0.0136
vn -0.9999 -0.0135 0.0010
vn 0.0010 -0.0116 -0.9999
vn -0.0010 0.0116 0.9999
vn 0.9999 0.0135 -0.0010
vn 0.9921 0.1252 -0.0107
vn 0.9960 0.0894 0.0035
vn 0.9962 0.0869 -0.0010
vn 0.9962 0.0872 -0.0013
vn 0.9961 0.0877 -0.0015
vn 0.9961 0.0882 -0.0015
vn 0.9961 0.0887 -0.0013
vn 0.9960 0.0890 -0.0009
vn 0.9960 0.0892 -0.0005
vn 0.9960 0.0892 0.0000
vn 0.9960 0.0890 0.0005
vn 0.9961 0.0886 0.0009
vn 0.9961 0.0882 0.0010
vn 0.9961 0.0877 0.0010
vn 0.9962 0.0872 0.0008
vn 0.9995 0.0253 -0.0205
vn 0.9962 0.0870 0.0006
vn 0.9960 0.0891 -0.0004
vn -0.0900 0.9958 0.0146
vn 0.0153 -0.1736 -0.9847
vn 0.0879 -0.9733 -0.2119
vn 0.0376 -0.4113 0.9107
vn 0.0825 -0.9147 -0.3956
vn 0.0529 -0.5817 0.8117
vn 0.0740 -0.8213 -0.5657
vn 0.0661 -0.7282 0.6822
vn 0.0626 -0.6956 -0.7157
vn 0.0767 -0.8458 0.5279
vn 0.0486 -0.5418 -0.8391
vn 0.0843 -0.9310 0.3550
vn 0.0326 -0.3654 -0.9303
vn 0.0888 -0.9815 0.1699
vn 0.0209 -0.2269 0.9737
vn -0.0282 0.3164 0.9482
usemtl Material.001
s off
f 15/1/1 17/2/1 142/3/1 141/4/1
f 119/5/2 6/6/2 8/7/2 120/8/2
f 120/8/3 8/7/3 10/9/3 121/10/3
f 121/10/4 10/9/4 12/11/4 122/12/4
f 122/12/5 12/11/5 14/13/5 123/14/5
f 123/14/6 14/13/6 16/15/6 124/16/6
f 124/16/7 16/15/7 18/17/7 125/18/7
f 125/18/8 18/17/8 20/19/8 126/20/8
f 126/20/9 20/19/9 22/21/9 127/22/9
f 127/22/10 22/21/10 24/23/10 128/24/10
f 128/24/11 24/23/11 26/25/11 129/26/11
f 129/26/12 26/25/12 28/27/12 130/28/12
f 130/28/13 28/27/13 30/29/13 34/30/13 32/31/13 35/32/13 118/33/13 132/34/13 131/35/13
f 116/36/14 2/37/14 4/38/14 6/6/14 119/5/14 117/39/14
f 4/38/15 2/37/15 35/40/15 34/30/15 30/29/15 28/27/15 26/25/15 24/23/15 22/21/15 20/19/15 18/17/15 16/15/15 14/13/15 12/11/15 10/9/15 8/7/15 6/6/15
f 116/36/16 118/33/16 35/32/16 2/37/16
f 36/41/17 37/42/17 39/43/17 38/44/17
f 38/44/18 39/43/18 41/45/18 40/46/18
f 40/46/19 41/45/19 43/47/19 42/48/19
f 42/48/20 43/47/20 45/49/20 44/50/20
f 44/50/21 45/49/21 47/51/21 46/52/21
f 46/52/22 47/51/22 49/53/22 48/54/22
f 48/54/23 49/53/23 51/55/23 50/56/23
f 50/56/24 51/55/24 53/57/24 52/58/24
f 52/58/25 53/57/25 55/59/25 54/60/25
f 54/60/26 55/59/26 57/61/26 56/62/26
f 56/62/27 57/61/27 59/63/27 58/64/27
f 58/64/28 59/63/28 61/65/28 60/66/28
f 60/66/29 61/65/29 63/67/29 62/68/29
f 62/68/30 63/67/30 65/69/30 64/70/30
f 64/70/31 65/69/31 67/71/31 66/72/31
f 66/72/32 67/71/32 69/73/32 68/74/32
f 68/74/33 69/73/33 71/75/33 70/76/33
f 70/76/34 71/75/34 73/77/34 72/78/34
f 72/78/35 73/77/35 75/79/35 74/80/35
f 74/80/36 75/79/36 77/81/36 76/82/36
f 76/82/37 77/81/37 79/83/37 78/84/37
f 78/84/38 79/83/38 81/85/38 80/86/38
f 80/86/39 81/85/39 83/87/39 82/88/39
f 82/88/40 83/87/40 85/89/40 84/90/40
f 84/90/41 85/89/41 87/91/41 86/92/41
f 86/92/42 87/91/42 89/93/42 88/94/42
f 88/94/43 89/93/43 91/95/43 90/96/43
f 90/96/44 91/95/44 93/97/44 92/98/44
f 92/98/45 93/97/45 95/99/45 94/100/45
f 94/100/46 95/99/46 97/101/46 96/102/46
f 39/103/47 37/104/47 99/105/47 97/106/47 95/107/47 93/108/47 91/109/47 89/110/47 87/111/47 85/112/47 83/113/47 81/114/47 79/115/47 77/116/47 75/117/47 73/118/47 71/119/47 69/120/47 67/121/47 65/122/47 63/123/47 61/124/47 59/125/47 57/126/47 55/127/47 53/128/47 51/129/47 49/130/47 47/131/47 45/132/47 43/133/47 41/134/47
f 96/102/48 97/101/48 99/135/48 98/136/48
f 98/136/49 99/135/49 37/137/49 36/138/49
f 36/139/50 38/140/50 40/141/50 42/142/50 44/143/50 46/144/50 48/145/50 50/146/50 52/147/50 54/148/50 56/149/50 58/150/50 60/151/50 62/152/50 64/153/50 66/154/50 68/155/50 70/156/50 72/157/50 74/158/50 76/159/50 78/160/50 80/161/50 82/162/50 84/163/50 86/164/50 88/165/50 90/166/50 92/167/50 94/168/50 96/169/50 98/170/50
f 100/171/51 101/172/51 103/173/51 102/174/51
f 102/174/52 103/173/52 108/175/52 109/176/52
f 107/177/50 105/178/50 115/179/50 112/180/50
f 110/181/53 111/182/53 101/183/53 100/184/53
f 102/185/50 109/176/50 110/181/50 100/186/50
f 108/175/47 103/187/47 101/188/47 111/182/47
f 107/177/54 106/189/54 109/176/54 108/175/54
f 106/189/54 104/190/54 110/181/54 109/176/54
f 105/178/54 107/177/54 108/175/54 111/182/54
f 104/190/54 105/178/54 111/182/54 110/181/54
f 113/191/54 112/180/54 115/179/54 114/192/54
f 106/189/53 107/177/53 112/180/53 113/191/53
f 105/178/52 104/190/52 114/192/52 115/179/52
f 104/190/47 106/189/47 113/191/47 114/192/47
f 3/193/55 1/194/55 116/36/55 117/39/55
f 1/194/56 31/195/56 118/33/56 116/36/56
f 5/196/57 3/193/57 117/39/57 119/5/57
f 7/197/58 5/196/58 119/5/58 120/8/58
f 9/198/59 7/197/59 120/8/59 121/10/59
f 11/199/60 9/198/60 121/10/60 122/12/60
f 13/200/61 11/199/61 122/12/61 123/14/61
f 15/1/62 13/200/62 123/14/62 124/16/62
f 17/2/63 15/1/63 124/16/63 125/18/63
f 19/201/64 17/2/64 125/18/64 126/20/64
f 21/202/65 19/201/65 126/20/65 127/22/65
f 23/203/66 21/202/66 127/22/66 128/24/66
f 25/204/67 23/203/67 128/24/67 129/26/67
f 27/205/68 25/204/68 129/26/68 130/28/68
f 29/206/69 27/205/69 130/28/69 131/35/69
f 31/195/70 33/207/70 132/34/70 118/33/70
f 33/207/71 29/206/71 131/35/71 132/34/71
f 133/208/72 134/209/72 136/210/72 137/211/72 138/212/72 139/213/72 140/214/72 141/4/72 142/3/72 143/215/72 144/216/72 145/217/72 146/218/72 147/219/72 148/220/72 149/221/72 135/222/72
f 31/195/73 1/194/73 133/208/73 135/222/73
f 29/206/74 33/207/74 149/221/74 148/220/74
f 17/2/75 19/201/75 143/215/75 142/3/75
f 3/193/76 5/196/76 136/210/76 134/209/76
f 19/201/77 21/202/77 144/216/77 143/215/77
f 5/196/78 7/197/78 137/211/78 136/210/78
f 21/202/79 23/203/79 145/217/79 144/216/79
f 7/197/80 9/198/80 138/212/80 137/211/80
f 23/203/81 25/204/81 146/218/81 145/217/81
f 9/198/82 11/199/82 139/213/82 138/212/82
f 25/204/83 27/205/83 147/219/83 146/218/83
f 11/199/84 13/200/84 140/214/84 139/213/84
f 27/205/85 29/206/85 148/220/85 147/219/85
f 13/200/86 15/1/86 141/4/86 140/214/86
f 1/194/87 3/193/87 134/209/87 133/208/87
f 33/207/88 31/195/88 135/222/88 149/221/88
